#!OML:ASF E:/inclinewalkrobotboard/Project1/Captureday1/Session1/subject1.ASF
:FULLY-SPECIFIED
:DEGREES
188
root 0 0 0 -2.385893534484101 -5.727214533327775 -5.304827235255736
lowerback 11.700199603200053 2.6081047584293464 5.162697527008999
upperback 1.8730343741322615 4.075777085560276 1.0844785538247221
thorax -4.412224506899973 1.904870488818229 -2.321230324726667
lowerneck -16.526680815525303 -3.6488345434552887 -2.4938094285678094
upperneck 20.529204648620865 -4.864281743622337 1.5135131872638847
head 9.096068525420261 -2.288403633925978 0.28587948039070055
rclavicle -2.3581712234808527E-15 1.711422838264852E-15
rhumerus -29.323059174410467 -16.15324375523732 -82.50271034657807
rradius 27.838386997512814
rwrist 11.22152554216624
rhand -20.312516060381256 28.785886484281633
rfingers 7.125019999999995
rthumb 6.059420127508456 -1.2835595104947117
lclavicle -6.451846237998071E-15 1.0103295877430398E-15
lhumerus -31.99413421173616 2.368118245447593 84.11976972829135
lradius 22.72949315814045
lwrist 3.9796450954834754
lhand -27.833670483126348 26.90105325115255
lfingers 7.125020000000048
lthumb -1.2383444875891927 56.90024506800684
rfemur 0.615316341929935 4.633852979828628 24.94079953780128
rtibia 34.06784603818201
rfoot -6.313287759543785 -2.7248491357386135
rtoes 1.4983973432698565
lfemur -21.875619826559397 -3.8515570934154137 -16.072772678385064
ltibia 21.609320655504284
lfoot -9.086553146073 3.6147711133904585
ltoes 0.15881664033445375
189
root 0 0 0 -2.9757284635700216 -5.37871175656907 -3.676428928687394
lowerback 12.011017289391747 2.4433425605503154 3.589941773107057
upperback 2.225780786614921 3.6652481537209782 0.8133337507399687
thorax -4.2201696150068795 1.73321332753703 -1.6516229919861627
lowerneck -16.245515402242642 -3.6926826289230723 -2.6516897910289376
upperneck 20.396510068519007 -4.916317418297443 1.7221239723723643
head 8.987732139011607 -2.3051853644362845 0.3735556633200781
rclavicle -2.2920561930775605E-15 1.752548982149804E-15
rhumerus -29.821703187470487 -17.456028896786584 -82.28149242848329
rradius 26.976947147602928
rwrist 11.958869737135998
rhand -20.207505664442895 28.222119284672047
rfingers 7.125019999999995
rthumb 6.161303550207209 -1.8449106843416558
lclavicle -6.276497571562198E-15 1.045538657284856E-15
lhumerus -32.84441685515243 3.300924370993395 83.55922883993853
lradius 22.039594642532652
lwrist 3.4512191689970715
lhand -27.68401549802639 26.95459693329627
lfingers 7.125020000000051
lthumb -1.0972726177404528 56.92941132287419
rfemur -4.524449526408475 2.6119139308340222 22.828478454771034
rtibia 49.164750891791684
rfoot 1.842828952569092 -1.8385071785219056
rtoes 6.952431189538181
lfemur -18.267407620752337 -3.927960895162052 -17.58607948974049
ltibia 21.268119113929494
lfoot -9.503376217375994 2.827288536347736
ltoes 0.08582391731345851
190
root 0 0 0 -5.2844739870366055 -4.297675848833114 1.9294820094979364
lowerback 13.570641202959132 1.2223790049322985 -2.1939339959587594
upperback 2.4939062801933973 1.371384037208133 0.16320139848548554
thorax -4.855965071981772 0.7235902645876997 1.2619105485020736
lowerneck -15.511716110597929 -3.4406488398451835 -2.4716912663075754
upperneck 17.103718015390804 -4.4744722672074495 1.8857358847417878
head 7.902052462314253 -2.1082256046873296 0.4906537343388644
rclavicle -2.8807570915975084E-15 2.6192234054398797E-15
rhumerus -30.663084450189288 -19.73820523080208 -81.71089475163122
rradius 25.528842386317834
rwrist 12.614402478565285
rhand -20.02721822445434 27.313699258853788
rfingers 7.1250199999999975
rthumb 6.337005629110444 -2.7517840539416483
lclavicle -6.9260723644354214E-15 2.0745727949048835E-15
lhumerus -31.26496881928035 1.9188592819587738 83.73309304789403
lradius 23.28961366237276
lwrist 4.316039218822441
lhand -28.072841384141018 26.864664857809007
lfingers 7.125020000000046
lthumb -1.4753042307655146 56.88164622446766
rfemur -20.194540818458037 0.07328862759209276 18.149382218993495
rtibia 61.23496404891467
rfoot 6.5504742111082646 -4.246398887750001
rtoes 9.716352960393316
lfemur -1.8914923950083349 -4.4296702178536655 -24.96322861481046
ltibia 18.640422047793766
lfoot -13.813806513368537 0.8846447091666785
ltoes -0.5825555152471082
191
root 0 0 0 -4.059422907058325 -3.0329480136517946 3.4989925560662702
lowerback 13.32311496168505 0.46787767159538846 -3.809137660740663
upperback 2.363645574943513 0.14567448216020384 0.16645346422162455
thorax -4.845374532972897 0.16912532488314896 2.328677979807532
lowerneck -14.622336187238322 -2.9939153653880144 -2.687492964246474
upperneck 16.401463249378068 -3.7751060226793265 2.0646530368181977
head 7.473742659929106 -1.8155974753705935 0.6862078576202726
rclavicle -1.272901721763132E-15 3.676322738920522E-15
rhumerus -30.897671380156364 -21.13208927172009 -81.1570562338924
rradius 25.017807780185628
rwrist 12.52594521970337
rhand -19.943186564985098 26.627004047286576
rfingers 7.12502
rthumb 6.417215325331347 -3.446068345116842
lclavicle -2.1032389104877504E-15 3.62109429680434E-15
lhumerus -28.766976832051405 -1.6704073214380866 83.78893420812648
lradius 27.52841866386835
lwrist 6.6591987082311395
lhand -28.360811687282528 26.25940760509187
lfingers 7.125020000000035
lthumb -1.7508991219037586 56.28056768619548
rfemur -23.726965686999765 -0.5730161817029238 15.873058982128684
rtibia 59.569642365937526
rfoot 5.912172016527393 -4.996296884035052
rtoes 8.71335777618378
lfemur 4.4531643012607605 -4.954269984910167 -27.61778273046643
ltibia 18.301479952986774
lfoot -16.363831151327844 0.733680716057791
ltoes 0.09428081008752898
192
root 0 0 0 -2.6101425877088165 -1.7643396305400039 4.006647789450049
lowerback 11.935487996519699 -0.2556317899962345 -4.57529965120422
upperback 1.6399197834016508 -0.9322720625850904 0.1840827154942114
thorax -4.836511114177341 -0.35035852334922657 2.915462225437801
lowerneck -15.374246492731753 -2.6762233892319576 -2.883411893691105
upperneck 13.451090810385569 -3.213012911405391 1.8906986987107097
head 6.534722030977406 -1.613030912435811 0.7471634030153251
rclavicle 4.832828127929228E-16 3.1306616618520403E-15
rhumerus -31.374225770364028 -22.08731562562949 -80.81018312066456
rradius 24.225096276356496
rwrist 12.05061469670234
rhand -19.85019814728852 26.31983939140372
rfingers 7.125020000000003
rthumb 6.507534732126388 -3.749839848912387
lclavicle 4.118280659646244E-15 3.2000250709274178E-15
lhumerus -27.363967378069972 -4.5982404795048195 83.68276751297066
lradius 31.2543569007551
lwrist 8.453357117368366
lhand -28.25451383358257 25.47882953410912
lfingers 7.125020000000023
lthumb -1.6513404431591425 55.44209142678869
rfemur -26.966859037396777 0.022019578482024738 15.848678245727708
rtibia 54.77332065109031
rfoot 3.6180015205710436 -6.415278684970662
rtoes 7.264590541745117
lfemur 7.306695949947994 -5.440359198902298 -28.47512139599531
ltibia 17.486431345777994
lfoot -16.9449055704076 0.5752888785348147
ltoes 0.4055414487486573
193
root 0 0 0 -1.6393731114978571 -1.0005155133673678 3.8049170748696093
lowerback 10.653840397542261 -0.6454735565759956 -4.635770791638565
upperback 0.9994604774358937 -1.4535209884723301 0.3223905827397586
thorax -4.787080405057412 -0.6123166118562944 3.1549681078188723
lowerneck -15.844350941202068 -2.6079479686414864 -2.995156858678988
upperneck 11.35685366358701 -3.03538198582582 1.8246347449540092
head 5.8474863155729055 -1.5694306829960132 0.78130534649376
rclavicle 2.344848084689497E-16 1.9008587235836516E-15
rhumerus -31.89384215262863 -23.389739012987633 -80.51796820660309
rradius 23.34925415013828
rwrist 11.92541533729096
rhand -19.798826558680616 25.799077772704855
rfingers 7.125020000000003
rthumb 6.557440610877276 -4.272300001060081
lclavicle 4.668893488122419E-15 2.086101782522977E-15
lhumerus -26.781697599845145 -5.480301809623307 83.52575577804093
lradius 32.39003293389576
lwrist 8.832364567735945
lhand -28.196091560001747 24.895543707054816
lfingers 7.125020000000015
lthumb -1.6032491595329894 54.83948554340073
rfemur -31.04179708202656 2.084705706712537 19.24357798789663
rtibia 47.75547366548989
rfoot -2.049266839075088 -9.187869944798432
rtoes 4.5318040261927806
lfemur 9.237375248597306 -5.868627068894227 -28.67419372357235
ltibia 16.703697470000478
lfoot -16.656816736837758 0.20851055389831874
ltoes -0.13206008424669236
194
root 0 0 0 -1.038968082920356 -0.3438274162137134 3.347541669584665
lowerback 10.001008668988888 -0.8953228923533788 -4.589727835544864
upperback 0.6935198014997457 -1.749054025633263 0.6422977698452006
thorax -4.722907434864451 -0.7549538269944722 3.4921621621465757
lowerneck -15.479944129945999 -2.661958729795489 -3.033275911734143
upperneck 12.111234330740094 -3.115874254282778 1.955812386253692
head 6.099616052263585 -1.6038353271821193 0.8242025514280034
rclavicle 6.2250180268297385E-16 1.1711779037164559E-15
rhumerus -32.204975286023256 -24.49417295985994 -80.22186122455199
rradius 22.613937195070662
rwrist 11.726394863059571
rhand -19.752590939793823 25.407732056991044
rfingers 7.125020000000003
rthumb 6.602382715495091 -4.665038017803155
lclavicle 5.273960436457802E-15 1.7160990060340907E-15
lhumerus -26.47789438577872 -5.580965169612831 83.22050391357955
lradius 32.63922169116756
lwrist 8.839523357007572
lhand -28.22982711636995 24.652376709237075
lfingers 7.125020000000014
lthumb -1.6392915372397834 54.59811976085401
rfemur -31.365226916679784 3.9002614862951517 21.162233737992597
rtibia 39.12252451232452
rfoot -6.53276100935587 -11.064594452775163
rtoes 1.5887248760771036
lfemur 10.439960034111873 -6.230090184304492 -28.49209475472255
ltibia 16.382118533981618
lfoot -16.10455922683225 -0.1460039414761174
ltoes -1.1679796354412098
195
root 0 0 0 -0.778665044610734 0.7325202024125166 2.341897868531469
lowerback 9.453212516137281 -1.262495761529867 -4.278253001048099
upperback 0.34662378796021026 -2.109660448016596 1.359268404151349
thorax -4.74995878226853 -0.9312976363847567 4.103482573239914
lowerneck -15.72139405334593 -2.876280729735119 -3.179833189282621
upperneck 15.45749787204725 -3.4404809278388098 1.9966714338913214
head 7.398444307332308 -1.7319693651929509 0.796622158350258
rclavicle 1.5718816639027117E-15 1.0917482059908795E-15
rhumerus -32.71465703738419 -25.889762625688533 -79.72246785865306
rradius 21.38915809470162
rwrist 11.145325809277708
rhand -19.55273786793104 24.942233015116365
rfingers 7.1250200000000055
rthumb 6.795108197287192 -5.1108749879418625
lclavicle 6.551331114180479E-15 2.0649511273976456E-15
lhumerus -26.340719716371314 -5.158295756842572 82.76139879674982
lradius 32.27105004089527
lwrist 8.592511434186726
lhand -28.347694811056478 24.757122802568606
lfingers 7.125020000000019
lthumb -1.7507528823621552 54.71825760641984
rfemur -28.516917208732487 5.118733529241173 21.741731039850148
rtibia 31.18354116494979
rfoot -8.930499477264004 -11.374477056008152
rtoes -0.44512835946606777
lfemur 11.951382680755955 -6.395885606024153 -27.747326082902998
ltibia 17.661485028884798
lfoot -14.690131740314195 -1.1850359788736156
ltoes -4.171211369567331
